<svg width="85" height="40" viewBox="0 0 85 40" fill="none" xmlns="http://www.w3.org/2000/svg">
<path d="M1.75391 28.1175H6.85391V21.0455C6.85391 20.1495 6.85391 18.7735 7.74641 17.9095C8.16078 17.4935 8.60703 17.3975 9.14891 17.3975C9.65891 17.3975 10.2327 17.4935 10.6789 17.9735C11.2527 18.5815 11.3483 19.6695 11.3483 21.0455V28.1175H16.4483V20.7895C16.4483 20.0855 16.512 18.9015 17.3727 18.0695C17.8189 17.6535 18.297 17.4935 18.8708 17.4935C19.5402 17.4935 19.9227 17.7175 20.2095 17.9735C20.7833 18.5175 20.9427 19.5415 20.9427 21.0455V28.1175H26.0427V18.8055C26.0427 17.8135 25.9789 16.1175 24.7039 14.8695C23.5245 13.7175 21.8033 13.5575 20.7514 13.5575C19.7952 13.5575 18.807 13.6855 17.787 14.2615C17.1495 14.6135 16.4164 15.2215 15.8427 16.2455C15.492 15.5415 14.9183 14.7415 13.8664 14.1975C13.1014 13.7815 12.1452 13.5575 11.1252 13.5575C9.72266 13.5575 8.06516 14.0695 6.85391 15.5415V13.8135H1.75391V28.1175ZM34.6824 26.7415C36.2761 28.4055 38.1886 28.5975 39.113 28.5975C40.5474 28.5975 42.3961 28.1815 43.9899 26.6135C45.3605 25.2695 46.2849 23.3495 46.2849 20.9495C46.2849 18.4855 45.2968 16.5975 44.1174 15.4135C42.9699 14.2615 41.2486 13.3335 39.0492 13.3335C36.9455 13.3335 35.5749 14.2615 34.6824 15.3815V13.8135H29.5824V35.4455H34.6824V26.7415ZM37.8061 17.6855C38.6986 17.6855 39.4955 18.0375 40.0693 18.6455C40.7068 19.2855 41.0574 20.2135 41.0574 21.0135C41.0574 21.8775 40.6111 22.7415 40.0693 23.2855C39.4955 23.8935 38.6986 24.2455 37.8061 24.2455C36.9455 24.2455 36.1168 23.8935 35.5111 23.2855C34.9693 22.7415 34.523 21.8455 34.523 21.0135C34.523 20.2135 34.8736 19.2855 35.5111 18.6455C36.1168 18.0375 36.9455 17.6855 37.8061 17.6855ZM47.1596 13.8135L54.4908 28.1175H57.9333L61.344 20.2455L64.914 28.1175H68.3565L75.8152 13.8135H70.1415L66.5715 21.5895L62.9696 13.8135H59.8458L56.244 21.3655L52.8652 13.8135H47.1596Z" fill="white"/>
<path d="M80.6724 27.9895C81.5012 27.9895 82.3299 27.6695 82.9993 26.9975C83.573 26.4215 83.9555 25.7175 83.9555 24.6615C83.9555 23.6055 83.573 22.9015 83.0312 22.3575C82.3299 21.6535 81.4693 21.3335 80.6724 21.3335C79.9712 21.3335 79.1105 21.5575 78.3455 22.3255C77.9312 22.7415 77.3574 23.5095 77.3574 24.6615C77.3574 25.8135 77.9312 26.5815 78.3455 26.9975C79.1105 27.7655 79.9712 27.9895 80.6724 27.9895Z" fill="#44D500"/>
</svg>
